<?xml version="1.0" encoding="UTF-8" ?>
<!DOCTYPE svg PUBLIC "-//W3C//DTD SVG 1.1//EN" "http://www.w3.org/Graphics/SVG/1.1/DTD/svg11.dtd">
<svg width="210" height="210" version="1.1" xmlns="http://www.w3.org/2000/svg">
  <polygon points="54,70 105,124 156,70 116,70 116,77 109,77 109,84 101,84 101,77 94,77 94,70" fill="#3497D8"/>
  <rect x="80"  y="21" width="7" height="7" fill="#3497D8"/>
  <rect x="94"  y="21" width="7" height="7" fill="#3497D8"/>
  <rect x="109" y="21" width="7" height="7" fill="#3497D8"/>
  <rect x="123" y="21" width="7" height="7" fill="#3497D8"/>
  <rect x="87"  y="28" width="7" height="7" fill="#3497D8"/>
  <rect x="101" y="28" width="8" height="7" fill="#3497D8"/>
  <rect x="116" y="28" width="7" height="7" fill="#3497D8"/>
  <rect x="80"  y="35" width="7" height="7" fill="#3497D8"/>
  <rect x="94"  y="35" width="7" height="7" fill="#3497D8"/>
  <rect x="109" y="35" width="7" height="7" fill="#3497D8"/>
  <rect x="123" y="35" width="7" height="7" fill="#3497D8"/>
  <rect x="87"  y="42" width="7" height="7" fill="#3497D8"/>
  <rect x="101" y="42" width="8" height="7" fill="#3497D8"/>
  <rect x="116" y="42" width="7" height="7" fill="#3497D8"/>
  <rect x="80"  y="49" width="7" height="7" fill="#3497D8"/>
  <rect x="94"  y="49" width="7" height="7" fill="#3497D8"/>
  <rect x="109" y="49" width="7" height="7" fill="#3497D8"/>
  <rect x="123" y="49" width="7" height="7" fill="#3497D8"/>
  <rect x="87"  y="56" width="7" height="7" fill="#3497D8"/>
  <rect x="101" y="56" width="8" height="7" fill="#3497D8"/>
  <rect x="116" y="56" width="7" height="7" fill="#3497D8"/>
  <rect x="80"  y="63" width="7" height="7" fill="#3497D8"/>
  <rect x="94"  y="63" width="7" height="7" fill="#3497D8"/>
  <rect x="109" y="63" width="7" height="7" fill="#3497D8"/>
  <rect x="123" y="63" width="7" height="7" fill="#3497D8"/>
  <rect x="101" y="70" width="8" height="7" fill="#3497D8"/>
  <text x="98" y="190" text-anchor="middle" fill="#ff6a00" style="font-family: 'Arial Black'; font-style: italic; font-weight: bold;" font-size="60px">DXF</text>
</svg>