<?xml version="1.0" encoding="UTF-8"?>
<!DOCTYPE svg PUBLIC "-//W3C//DTD SVG 1.1//EN" "http://www.w3.org/Graphics/SVG/1.1/DTD/svg11.dtd">
<svg width="260" height="260" viewBox="0 0 260 260" version="1.1" xmlns="http://www.w3.org/2000/svg" xmlns:xlink="http://www.w3.org/1999/xlink">
  <path style="fill:#333333" d="
    M 60,50  H 220 V 51  c 0,0 -13,0 -13,19 c 0,0 0,13 13,19 V 90  H 60 c 0,0 -18,0 -18,-20 c 0,0 0,-20 18,-20 Z
    M 60,110 H 220 V 111 c 0,0 -13,0 -13,19 c 0,0 0,13 13,19 V 150 H 60 c 0,0 -18,0 -18,-20 c 0,0 0,-20 18,-20 Z
    M 60,170 H 220 V 171 c 0,0 -13,0 -13,19 c 0,0 0,13 13,19 V 210 H 60 c 0,0 -18,0 -18,-20 c 0,0 0,-20 18,-20 Z
    " />
</svg>