<?xml version="1.0" encoding="UTF-8" ?>
<!DOCTYPE svg PUBLIC "-//W3C//DTD SVG 1.1//EN" "http://www.w3.org/Graphics/SVG/1.1/DTD/svg11.dtd">
<svg width="210pt" height="210pt" viewBox="0 0 210 210" version="1.1" xmlns="http://www.w3.org/2000/svg">
<g id="#3497D8FF">
<path fill="#3497D8" opacity="1.00" d=" M 184.00 34.84 C 185.98 36.05 187.99 37.24 189.99 38.42 C 164.53 81.12 138.83 123.70 113.54 166.51 C 99.99 143.62 86.24 120.86 72.65 98.00 C 97.19 98.00 121.73 98.00 146.26 98.00 C 158.77 76.90 171.42 55.89 184.00 34.84 M 84.93 105.00 C 94.49 120.89 103.97 136.83 113.49 152.74 C 123.03 136.83 132.50 120.89 142.07 105.00 C 123.02 105.00 103.98 105.00 84.93 105.00 Z" />
<path fill="#3497D8" opacity="1.00" d=" M 35.00 167.00 C 85.00 167.00 135.00 167.00 185.00 167.00 C 185.00 169.33 185.00 171.66 184.99 174.00 C 135.00 174.00 85.00 174.00 35.00 174.00 C 35.00 171.66 35.00 169.33 35.00 167.00 Z" />
</g>
<g id="#ff6a00ff">
<path fill="#ff6a00" opacity="1.00" d=" M 19.02 37.11 C 30.72 36.13 35.36 20.54 48.12 25.05 C 42.08 40.48 37.94 56.50 31.86 71.92 C 27.53 71.98 23.20 72.07 18.87 71.95 C 21.79 63.71 25.31 55.51 27.08 47.00 L 28.00 47.00 C 28.00 46.25 28.00 44.75 28.00 44.00 L 29.00 44.00 C 29.00 43.50 29.00 42.50 29.00 42.00 L 28.00 42.00 L 27.92 42.85 C 24.90 43.78 22.25 45.95 19.02 46.11 L 19.00 47.00 C 18.25 47.00 16.75 47.00 16.00 47.00 L 16.02 48.01 C 15.48 47.99 14.41 47.95 13.87 47.93 C 16.67 44.99 14.79 39.75 18.87 37.79 L 19.02 37.11 Z" />
<path fill="#ff6a00" opacity="1.00" d=" M 95.00 25.00 C 99.33 25.00 103.67 25.00 108.00 25.00 L 108.00 26.00 C 108.75 26.00 110.25 26.00 111.00 26.00 L 111.00 27.00 C 111.50 27.00 112.50 27.00 113.00 27.00 L 113.00 28.00 L 114.00 28.00 L 114.00 29.00 L 115.00 29.00 C 115.00 29.50 115.00 30.50 115.00 31.00 L 116.00 31.00 C 116.00 32.75 116.00 36.25 116.00 38.00 L 115.00 38.00 C 115.00 38.75 115.00 40.25 115.00 41.00 L 114.18 41.11 C 110.82 47.45 104.43 51.91 98.12 55.19 L 97.98 55.98 C 97.53 56.01 96.63 56.07 96.19 56.10 C 94.92 58.54 91.08 58.46 89.81 60.90 C 89.37 60.93 88.47 60.99 88.02 61.02 L 88.00 62.00 C 94.33 62.00 100.67 62.00 107.00 62.00 C 107.00 62.75 107.00 64.25 107.00 65.00 L 106.00 65.00 C 106.00 65.75 106.00 67.25 106.00 68.00 L 105.00 68.00 C 105.00 68.75 105.00 70.25 105.00 71.00 L 104.00 71.00 L 104.00 72.00 C 91.33 72.00 78.67 72.00 66.00 72.00 L 66.00 71.00 L 66.81 70.88 C 68.69 66.36 72.21 63.00 75.73 59.77 C 79.56 56.11 84.28 53.41 88.88 50.81 L 89.12 50.19 C 93.58 47.80 98.12 45.29 101.19 41.15 L 102.00 41.00 C 102.00 39.50 102.00 36.50 102.00 35.00 L 101.00 35.00 L 101.00 34.00 L 96.00 34.00 L 96.00 35.00 C 95.50 35.00 94.50 35.00 94.00 35.00 L 94.00 36.00 L 93.00 36.00 C 93.00 36.50 93.00 37.50 93.00 38.00 L 92.00 38.00 L 92.00 39.00 L 91.00 39.00 C 91.00 39.50 91.00 40.50 91.00 41.00 C 89.25 41.00 85.75 41.00 84.00 41.00 L 84.00 40.00 C 82.50 40.00 79.50 40.00 78.00 40.00 L 78.00 39.00 L 79.00 39.00 C 79.00 38.50 79.00 37.50 79.00 37.00 L 80.00 37.00 C 80.00 36.50 80.00 35.50 80.00 35.00 L 81.00 35.00 L 81.00 34.00 L 82.00 34.00 L 82.00 33.00 L 83.00 33.00 C 83.00 32.50 83.00 31.50 83.00 31.00 L 84.00 31.00 L 84.02 30.02 C 84.47 29.99 85.37 29.93 85.82 29.90 C 87.89 27.36 91.61 25.73 95.00 25.94 L 95.00 25.00 Z" />
<path fill="#ff6a00" opacity="1.00" d=" M 130.00 26.00 C 140.33 26.00 150.66 26.00 161.00 26.00 C 161.00 26.75 161.00 28.25 161.00 29.00 L 160.00 29.00 C 160.00 29.75 160.00 31.25 160.00 32.00 L 159.00 32.00 C 159.00 32.75 159.00 34.25 159.00 35.00 L 158.00 35.00 L 158.00 36.00 C 150.99 36.00 143.98 36.01 136.97 35.99 C 135.81 38.25 134.76 40.55 133.84 42.91 L 135.00 43.00 L 135.00 42.00 C 136.33 42.00 137.67 42.00 139.00 42.00 L 139.00 41.00 C 141.66 41.00 144.33 41.00 147.00 41.00 L 147.00 42.00 C 147.75 42.00 149.25 42.00 150.00 42.00 L 150.00 43.00 L 151.00 43.00 L 151.00 44.00 L 152.00 44.00 L 152.00 45.00 L 153.00 45.00 C 153.00 45.50 153.00 46.50 153.00 47.00 L 154.01 47.00 C 155.35 54.35 151.95 61.71 146.25 66.24 C 146.01 66.50 145.54 67.03 145.31 67.30 C 143.34 69.25 140.60 70.16 138.08 71.16 L 138.00 72.00 C 136.67 72.00 135.33 72.00 134.00 72.00 L 134.00 73.00 C 130.00 73.00 126.00 73.00 122.00 73.00 L 122.00 72.00 C 121.25 72.00 119.75 72.00 119.00 72.00 L 119.00 71.00 C 118.50 71.00 117.50 71.00 117.00 71.00 L 117.00 70.00 L 116.00 70.00 L 116.00 69.00 L 115.00 69.00 C 115.00 68.50 115.00 67.50 115.00 67.00 L 114.00 67.00 C 114.00 66.25 114.00 64.75 114.00 64.00 L 113.00 64.00 L 113.00 59.00 C 115.98 58.99 119.01 59.00 122.00 59.00 L 122.00 58.00 L 127.00 58.00 C 127.00 59.33 127.00 60.67 127.00 62.00 L 128.00 62.00 L 128.00 63.00 L 129.00 63.00 L 129.00 64.00 L 134.00 64.00 L 134.00 63.00 C 134.50 63.00 135.50 63.00 136.00 63.00 L 136.00 62.00 L 137.00 62.00 L 137.13 61.20 C 139.61 59.04 141.28 55.41 141.06 52.00 L 140.00 52.00 L 140.00 51.00 L 139.00 51.00 L 139.00 50.00 C 137.50 50.00 134.50 50.00 133.00 50.00 L 133.00 51.00 C 132.25 51.00 130.75 51.00 130.00 51.00 L 130.00 52.00 L 129.00 52.00 L 129.00 53.00 C 127.67 53.00 126.33 53.00 125.00 53.00 L 125.00 52.00 C 123.25 52.00 119.75 52.00 118.00 52.00 C 118.00 51.50 118.00 50.50 118.00 50.00 L 118.84 49.92 C 121.47 43.09 125.53 36.91 128.16 30.08 L 129.00 30.00 C 129.00 29.50 129.00 28.50 129.00 28.00 L 130.00 28.00 C 130.00 27.50 130.00 26.50 130.00 26.00 Z" />
<path fill="#ff6a00" opacity="1.00" d=" M 51.07 59.00 C 55.40 59.00 59.74 58.99 64.07 59.00 C 62.44 67.70 58.99 76.97 51.79 82.76 C 49.50 83.78 47.23 84.86 44.99 85.98 C 45.00 84.65 45.00 83.33 45.00 82.00 L 43.90 81.97 C 43.40 78.28 48.98 78.91 50.21 76.13 L 51.00 76.00 L 51.00 75.00 L 52.00 75.00 C 52.00 74.50 52.00 73.50 52.00 73.00 L 53.00 73.00 L 53.00 72.01 C 51.47 71.99 48.41 71.96 46.88 71.94 C 48.38 67.66 50.91 63.61 51.07 59.00 Z" />
</g>
</svg>
