<?xml version="1.0" encoding="UTF-8" ?>
<!DOCTYPE svg PUBLIC "-//W3C//DTD SVG 1.1//EN" "http://www.w3.org/Graphics/SVG/1.1/DTD/svg11.dtd">
<svg width="210pt" height="210pt" viewBox="0 0 210 210" version="1.1" xmlns="http://www.w3.org/2000/svg">
<g id="#3497D8FF">
<path fill="#3497D8" opacity="1.00" d=" M 184.00 34.84 C 185.98 36.05 187.99 37.24 189.99 38.42 C 164.53 81.12 138.83 123.70 113.54 166.51 C 99.99 143.62 86.24 120.86 72.65 98.00 C 97.19 98.00 121.73 98.00 146.26 98.00 C 158.77 76.90 171.42 55.89 184.00 34.84 M 84.93 105.00 C 94.49 120.89 103.97 136.83 113.49 152.74 C 123.03 136.83 132.50 120.89 142.07 105.00 C 123.02 105.00 103.98 105.00 84.93 105.00 Z" />
<path fill="#3497D8" opacity="1.00" d=" M 35.00 167.00 C 85.00 167.00 135.00 167.00 185.00 167.00 C 185.00 169.33 185.00 171.66 184.99 174.00 C 135.00 174.00 85.00 174.00 35.00 174.00 C 35.00 171.66 35.00 169.33 35.00 167.00 Z" />
</g>
<g id="#ff6a00ff">
<path fill="#ff6a00" opacity="1.00" d=" M 58.00 25.00 C 62.33 25.00 66.67 25.00 71.00 25.00 L 71.00 26.00 C 71.75 26.00 73.25 26.00 74.00 26.00 L 74.00 27.00 C 74.50 27.00 75.50 27.00 76.00 27.00 L 76.00 28.00 L 77.00 28.00 L 77.00 29.00 L 78.00 29.00 C 78.00 29.50 78.00 30.50 78.00 31.00 L 79.00 31.00 C 79.00 32.75 79.00 36.25 79.00 38.00 L 78.00 38.00 C 78.00 38.75 78.00 40.25 78.00 41.00 L 77.19 41.11 C 73.79 47.45 67.44 51.92 61.12 55.19 L 60.98 55.98 C 60.53 56.01 59.64 56.09 59.20 56.12 C 57.79 58.45 54.21 58.54 52.80 60.88 C 52.36 60.91 51.47 60.99 51.02 61.02 L 51.00 62.00 C 57.33 62.00 63.67 62.00 70.00 62.00 C 70.00 62.75 70.00 64.25 70.00 65.00 L 69.00 65.00 C 69.00 65.75 69.00 67.25 69.00 68.00 L 68.00 68.00 C 68.00 68.75 68.00 70.25 68.00 71.00 L 67.00 71.00 L 67.00 72.00 C 54.33 72.00 41.67 72.00 29.00 72.00 L 29.00 71.00 L 29.80 70.88 C 31.70 66.37 35.22 63.00 38.73 59.75 C 42.60 56.13 47.27 53.39 51.88 50.80 L 52.12 50.19 C 56.59 47.82 61.10 45.27 64.20 41.16 L 65.00 41.00 C 65.00 39.50 65.00 36.50 65.00 35.00 L 64.00 35.00 L 64.00 34.00 L 59.00 34.00 L 59.00 35.00 C 58.50 35.00 57.50 35.00 57.00 35.00 L 57.00 36.00 L 56.00 36.00 C 56.00 36.50 56.00 37.50 56.00 38.00 L 55.00 38.00 L 55.00 39.00 L 54.00 39.00 C 54.00 39.50 54.00 40.50 54.00 41.00 C 52.25 41.00 48.75 41.00 47.00 41.00 L 47.00 40.00 C 45.50 40.00 42.50 40.00 41.00 40.00 L 41.00 39.00 L 42.00 39.00 C 42.00 38.50 42.00 37.50 42.00 37.00 L 43.00 37.00 C 43.00 36.50 43.00 35.50 43.00 35.00 L 44.00 35.00 L 44.00 34.00 L 45.00 34.00 L 45.00 33.00 L 46.00 33.00 C 46.00 32.50 46.00 31.50 46.00 31.00 L 47.00 31.00 L 47.02 30.02 C 47.47 29.99 48.36 29.92 48.80 29.88 C 50.96 27.37 54.59 25.74 58.00 25.93 L 58.00 25.00 Z" />
<path fill="#ff6a00" opacity="1.00" d=" M 114.00 26.00 C 124.33 26.00 134.66 26.00 145.00 26.00 C 145.00 26.75 145.00 28.25 145.00 29.00 L 144.00 29.00 C 144.00 29.75 144.00 31.25 144.00 32.00 L 143.00 32.00 C 143.00 32.75 143.00 34.25 143.00 35.00 L 142.00 35.00 L 142.00 36.00 C 134.99 36.00 127.98 36.01 120.98 35.99 C 119.81 38.25 118.77 40.55 117.83 42.91 L 119.00 43.00 L 119.00 42.00 C 120.33 42.00 121.67 42.00 123.00 42.00 L 123.00 41.00 C 125.66 41.00 128.33 41.00 131.00 41.00 L 131.00 42.00 C 131.75 42.00 133.25 42.00 134.00 42.00 L 134.00 43.00 L 135.00 43.00 L 135.00 44.00 L 136.00 44.00 L 136.00 45.00 L 137.00 45.00 C 137.00 45.50 137.00 46.50 137.00 47.00 L 138.02 47.00 C 139.33 54.34 135.96 61.71 130.24 66.23 C 130.01 66.51 129.54 67.05 129.31 67.33 C 127.29 69.23 124.61 70.16 122.08 71.17 L 122.00 72.00 C 120.67 72.00 119.33 72.00 118.00 72.00 L 118.00 73.00 C 114.00 73.00 110.00 73.00 106.00 73.00 L 106.00 72.00 C 105.25 72.00 103.75 72.00 103.00 72.00 L 103.00 71.00 C 102.50 71.00 101.50 71.00 101.00 71.00 L 101.00 70.00 L 100.00 70.00 L 100.00 69.00 L 99.00 69.00 C 99.00 68.50 99.00 67.50 99.00 67.00 L 98.00 67.00 C 98.00 66.25 98.00 64.75 98.00 64.00 L 97.00 64.00 L 97.00 59.00 C 99.99 58.99 103.01 59.00 106.00 59.00 L 106.00 58.00 L 111.00 58.00 C 111.00 59.33 111.00 60.67 111.00 62.00 L 112.00 62.00 L 112.00 63.00 L 113.00 63.00 L 113.00 64.00 L 118.00 64.00 L 118.00 63.00 C 118.50 63.00 119.50 63.00 120.00 63.00 L 120.00 62.00 L 121.00 62.00 L 121.15 61.22 C 123.60 58.97 125.27 55.42 125.07 52.00 L 124.00 52.00 L 124.00 51.00 L 123.00 51.00 L 123.00 50.00 C 121.50 50.00 118.50 50.00 117.00 50.00 L 117.00 51.00 C 116.25 51.00 114.75 51.00 114.00 51.00 L 114.00 52.00 L 113.00 52.00 L 113.00 53.00 C 111.67 53.00 110.33 53.00 109.00 53.00 L 109.00 52.00 C 107.25 52.00 103.75 52.00 102.00 52.00 C 102.00 51.50 102.00 50.50 102.00 50.00 L 102.83 49.91 C 105.48 43.09 109.51 36.91 112.17 30.09 L 113.00 30.00 C 113.00 29.50 113.00 28.50 113.00 28.00 L 114.00 28.00 C 114.00 27.50 114.00 26.50 114.00 26.00 Z" />
<path fill="#ff6a00" opacity="1.00" d=" M 78.08 59.01 C 82.41 59.00 86.75 58.99 91.08 59.01 C 89.43 67.72 85.98 76.98 78.78 82.77 C 76.49 83.79 74.23 84.86 71.99 85.98 C 72.00 84.65 72.00 83.33 72.00 82.00 L 70.89 81.97 C 70.48 78.32 75.88 78.85 77.22 76.15 L 78.00 76.00 L 78.00 75.00 L 79.00 75.00 C 79.00 74.50 79.00 73.50 79.00 73.00 L 80.00 73.00 L 80.00 72.01 C 78.47 71.99 75.41 71.96 73.87 71.95 C 75.38 67.67 77.89 63.60 78.08 59.01 Z" />
</g>
</svg>
