<?xml version="1.0" encoding="UTF-8" ?>
<!DOCTYPE svg PUBLIC "-//W3C//DTD SVG 1.1//EN" "http://www.w3.org/Graphics/SVG/1.1/DTD/svg11.dtd">
<svg width="210pt" height="210pt" viewBox="0 0 210 210" version="1.1" xmlns="http://www.w3.org/2000/svg">
<g id="#3497D8FF">
<path fill="#3497D8" opacity="1.00" d=" M 184.00 34.84 C 185.98 36.05 187.99 37.24 189.99 38.42 C 164.53 81.12 138.83 123.70 113.54 166.51 C 99.99 143.62 86.24 120.86 72.65 98.00 C 97.19 98.00 121.73 98.00 146.26 98.00 C 158.77 76.90 171.42 55.89 184.00 34.84 M 84.93 105.00 C 94.49 120.89 103.97 136.83 113.49 152.74 C 123.03 136.83 132.50 120.89 142.07 105.00 C 123.02 105.00 103.98 105.00 84.93 105.00 Z" />
<path fill="#3497D8" opacity="1.00" d=" M 35.00 167.00 C 85.00 167.00 135.00 167.00 185.00 167.00 C 185.00 169.33 185.00 171.66 184.99 174.00 C 135.00 174.00 85.00 174.00 35.00 174.00 C 35.00 171.66 35.00 169.33 35.00 167.00 Z" />
</g>
<g id="#ff6a00ff">
<path fill="#ff6a00" opacity="1.00" d=" M 58.00 25.00 C 62.00 25.00 66.00 25.00 70.00 25.00 L 70.00 26.00 C 70.75 26.00 72.25 26.00 73.00 26.00 L 73.00 27.00 C 73.50 27.00 74.50 27.00 75.00 27.00 L 75.00 28.00 L 76.00 28.00 L 76.00 29.00 L 77.00 29.00 C 77.00 29.50 77.00 30.50 77.00 31.00 L 78.00 31.00 C 78.00 32.33 78.00 33.67 78.00 35.00 L 77.00 35.00 C 77.00 35.75 77.00 37.25 77.00 38.00 L 76.00 38.00 C 76.00 38.50 76.00 39.50 76.00 40.00 L 75.23 40.18 C 73.17 42.38 70.74 44.09 67.93 45.29 C 68.16 45.51 68.63 45.96 68.86 46.18 L 69.00 47.00 C 69.50 47.00 70.50 47.00 71.00 47.00 L 71.00 48.00 L 72.00 48.00 C 72.00 48.50 72.00 49.50 72.00 50.00 L 73.00 50.00 C 73.00 51.50 73.00 54.50 73.00 56.00 L 72.00 56.00 C 72.00 56.75 72.00 58.25 72.00 59.00 L 71.20 59.12 C 69.19 64.31 65.22 67.95 60.30 70.32 C 54.84 73.60 48.13 73.04 42.00 73.02 L 42.00 72.00 C 41.25 72.00 39.75 72.00 39.00 72.00 L 39.00 71.00 C 38.50 71.00 37.50 71.00 37.00 71.00 L 37.00 70.00 L 36.00 70.00 L 36.00 69.00 L 35.00 69.00 C 35.00 68.50 35.00 67.50 35.00 67.00 L 34.00 67.00 C 34.00 66.25 34.00 64.75 34.00 64.00 L 33.00 64.00 L 33.00 59.00 C 36.00 59.01 39.00 58.99 42.00 59.00 L 42.00 57.96 L 46.96 58.04 L 47.04 63.00 L 47.79 63.09 C 49.09 63.33 51.70 63.81 53.00 64.04 L 53.11 63.20 C 58.28 61.71 59.92 56.93 59.02 52.00 L 58.00 52.00 L 58.00 51.00 C 56.50 51.00 53.50 51.00 52.00 51.00 L 52.00 52.00 L 51.00 52.00 C 51.00 51.50 51.00 50.50 51.00 50.00 L 52.00 50.00 C 52.00 49.50 52.00 48.50 52.00 48.00 L 53.00 48.00 C 53.00 47.25 53.00 45.75 53.00 45.00 L 54.00 45.00 C 54.00 44.50 54.00 43.50 54.00 43.00 L 55.00 43.00 L 55.00 42.00 C 56.33 42.00 57.67 42.00 59.00 42.00 L 59.00 41.00 C 59.50 41.00 60.50 41.00 61.00 41.00 L 61.00 40.00 C 61.50 40.00 62.50 40.00 63.00 40.00 C 63.00 39.50 63.00 38.50 63.00 38.00 L 64.00 38.00 C 64.00 37.25 64.00 35.75 64.00 35.00 L 63.20 34.91 C 57.79 29.47 56.21 40.34 51.01 39.09 L 51.00 38.00 C 49.25 38.00 45.75 38.00 44.00 38.00 L 44.00 37.00 C 43.50 37.00 42.50 37.00 42.00 37.00 L 42.00 36.00 L 43.00 36.00 L 43.00 35.00 L 44.00 35.00 C 44.00 34.50 44.00 33.50 44.00 33.00 L 44.77 32.82 C 46.77 30.67 49.14 29.00 51.88 27.80 L 52.00 27.00 C 52.50 27.00 53.50 27.00 54.00 27.00 L 54.00 26.00 C 55.33 26.00 56.67 26.00 58.00 26.00 L 58.00 25.00 Z" />
<path fill="#ff6a00" opacity="1.00" d=" M 122.00 25.00 C 126.33 25.00 130.67 25.00 135.00 25.00 L 135.00 26.00 C 135.75 26.00 137.25 26.00 138.00 26.00 L 138.00 27.00 C 138.50 27.00 139.50 27.00 140.00 27.00 L 140.00 28.00 L 141.00 28.00 L 141.00 29.00 L 142.00 29.00 C 142.00 29.50 142.00 30.50 142.00 31.00 L 143.00 31.00 C 143.00 32.75 143.00 36.25 143.00 38.00 L 142.00 38.00 C 142.00 38.75 142.00 40.25 142.00 41.00 L 141.20 41.11 C 137.78 47.44 131.44 51.92 125.11 55.19 L 124.98 55.97 C 124.53 56.02 123.65 56.10 123.21 56.15 C 121.65 58.35 118.35 58.65 116.79 60.85 C 116.35 60.90 115.47 60.98 115.02 61.03 L 115.00 62.00 C 121.33 62.00 127.67 62.00 134.00 62.00 C 134.00 62.75 134.00 64.25 134.00 65.00 L 133.00 65.00 C 133.00 65.75 133.00 67.25 133.00 68.00 L 132.00 68.00 C 132.00 68.75 132.00 70.25 132.00 71.00 L 131.00 71.00 L 131.00 72.00 C 118.33 72.00 105.67 72.00 93.00 72.00 L 93.00 71.00 L 93.80 70.88 C 95.71 66.37 99.24 63.00 102.72 59.72 C 106.66 56.16 111.25 53.37 115.88 50.80 L 116.11 50.19 C 120.60 47.83 125.09 45.26 128.21 41.16 L 129.00 41.00 C 129.00 39.50 129.00 36.50 129.00 35.00 L 128.00 35.00 L 128.00 34.00 L 123.00 34.00 L 123.00 35.00 C 122.50 35.00 121.50 35.00 121.00 35.00 L 121.00 36.00 L 120.00 36.00 C 120.00 36.50 120.00 37.50 120.00 38.00 L 119.00 38.00 L 119.00 39.00 L 118.00 39.00 C 118.00 39.50 118.00 40.50 118.00 41.00 C 116.25 41.00 112.75 41.00 111.00 41.00 L 111.00 40.00 C 109.50 40.00 106.50 40.00 105.00 40.00 L 105.00 39.00 L 106.00 39.00 C 106.00 38.50 106.00 37.50 106.00 37.00 L 107.00 37.00 C 107.00 36.50 107.00 35.50 107.00 35.00 L 108.00 35.00 L 108.00 34.00 L 109.00 34.00 L 109.00 33.00 L 110.00 33.00 C 110.00 32.50 110.00 31.50 110.00 31.00 L 111.00 31.00 L 111.02 30.03 C 111.47 29.99 112.35 29.90 112.79 29.86 C 115.03 27.39 118.58 25.73 122.00 25.93 L 122.00 25.00 Z" />
<path fill="#ff6a00" opacity="1.00" d=" M 78.09 59.01 C 82.42 59.00 86.75 58.99 91.09 59.01 C 89.41 67.72 86.00 77.01 78.76 82.76 C 76.48 83.80 74.23 84.87 71.99 85.99 C 72.00 84.66 72.00 83.33 72.00 82.00 L 70.88 81.96 C 70.55 78.37 75.77 78.79 77.23 76.19 L 78.00 76.00 L 78.00 75.00 L 79.00 75.00 C 79.00 74.50 79.00 73.50 79.00 73.00 L 80.00 73.00 L 80.00 72.01 C 78.47 71.99 75.40 71.96 73.86 71.95 C 75.40 67.69 77.87 63.60 78.09 59.01 Z" />
</g>
</svg>
