<?xml version="1.0" encoding="UTF-8" ?>
<!DOCTYPE svg PUBLIC "-//W3C//DTD SVG 1.1//EN" "http://www.w3.org/Graphics/SVG/1.1/DTD/svg11.dtd">
<svg width="210pt" height="210pt" viewBox="0 0 210 210" version="1.1" xmlns="http://www.w3.org/2000/svg">
<g id="#3497D8FF">
<path fill="#3497D8" opacity="1.00" d=" M 184.00 34.84 C 185.98 36.05 187.99 37.24 189.99 38.42 C 164.53 81.12 138.83 123.70 113.54 166.51 C 99.99 143.62 86.24 120.86 72.65 98.00 C 97.19 98.00 121.73 98.00 146.26 98.00 C 158.77 76.90 171.42 55.89 184.00 34.84 M 84.93 105.00 C 94.49 120.89 103.97 136.83 113.49 152.74 C 123.03 136.83 132.50 120.89 142.07 105.00 C 123.02 105.00 103.98 105.00 84.93 105.00 Z" />
<path fill="#3497D8" opacity="1.00" d=" M 35.00 167.00 C 85.00 167.00 135.00 167.00 185.00 167.00 C 185.00 169.33 185.00 171.66 184.99 174.00 C 135.00 174.00 85.00 174.00 35.00 174.00 C 35.00 171.66 35.00 169.33 35.00 167.00 Z" />
</g>
<g id="#ff6a00ff">
<path fill="#ff6a00" opacity="1.00" d=" M 60.00 25.00 C 62.75 25.00 68.25 25.00 71.00 25.00 L 71.00 26.00 C 71.75 26.00 73.25 26.00 74.00 26.00 L 74.03 26.88 C 78.15 27.32 79.22 33.34 79.04 37.00 L 78.00 37.00 L 78.00 38.00 C 74.99 37.99 72.00 38.00 69.00 38.00 L 69.00 39.00 C 67.67 39.00 66.33 39.00 65.00 39.00 C 65.00 37.67 65.00 36.33 65.00 35.00 L 64.00 35.00 L 64.00 34.00 C 62.67 34.00 61.33 34.00 60.00 34.00 L 60.00 35.00 C 59.50 35.00 58.50 35.00 58.00 35.00 L 57.84 35.77 C 55.62 37.45 54.91 40.47 53.83 42.93 L 53.00 43.00 C 53.00 43.50 53.00 44.50 53.00 45.00 L 52.00 45.00 L 52.00 46.00 C 52.50 46.00 53.50 46.00 54.00 46.00 L 54.00 45.00 L 55.00 45.00 L 55.00 44.00 C 55.50 44.00 56.50 44.00 57.00 44.00 L 57.00 43.00 C 57.75 43.00 59.25 43.00 60.00 43.00 L 60.00 42.00 C 61.75 42.00 65.25 42.00 67.00 42.00 L 67.00 43.00 C 67.75 43.00 69.25 43.00 70.00 43.00 L 70.00 44.00 L 71.00 44.00 L 71.00 45.00 L 72.00 45.00 L 72.00 46.00 L 73.00 46.00 C 73.00 46.75 73.00 48.25 73.00 49.00 L 74.00 49.00 C 74.00 50.75 74.00 54.25 74.00 56.00 L 73.00 56.00 C 73.00 56.75 73.00 58.25 73.00 59.00 L 72.20 59.12 C 70.96 61.77 69.34 64.16 67.33 66.28 C 67.07 66.55 66.55 67.07 66.29 67.34 C 64.25 69.20 61.62 70.22 59.07 71.17 L 59.00 72.00 C 58.25 72.00 56.75 72.00 56.00 72.00 L 56.00 73.00 C 52.00 73.00 48.00 73.00 44.00 73.00 L 44.00 72.00 C 43.25 72.00 41.75 72.00 41.00 72.00 L 41.00 71.00 C 40.50 71.00 39.50 71.00 39.00 71.00 L 39.00 70.00 L 38.00 70.00 C 38.00 69.50 38.00 68.50 38.00 68.00 L 37.00 68.00 L 37.00 67.00 L 36.00 67.00 C 36.00 65.67 36.00 64.33 36.00 63.00 L 35.00 63.00 C 35.00 61.67 35.00 60.33 35.00 59.00 L 36.00 59.00 C 36.00 57.50 36.00 54.50 36.00 53.00 L 37.00 53.00 C 37.00 52.25 37.00 50.75 37.00 50.00 L 38.00 50.00 C 38.00 49.25 38.00 47.75 38.00 47.00 L 39.00 47.00 C 39.00 46.50 39.00 45.50 39.00 45.00 L 40.00 45.00 C 40.00 44.25 40.00 42.75 40.00 42.00 L 40.80 41.88 C 42.01 39.20 43.65 36.82 45.72 34.75 C 46.04 31.28 50.61 30.61 52.88 28.80 L 53.00 28.00 L 54.00 28.00 L 54.00 27.00 C 54.75 27.00 56.25 27.00 57.00 27.00 L 57.00 26.00 C 57.75 26.00 59.25 26.00 60.00 26.00 L 60.00 25.00 M 54.00 51.00 L 54.00 52.00 C 53.50 52.00 52.50 52.00 52.00 52.00 L 52.00 53.00 L 51.00 53.00 L 51.00 54.00 L 50.00 54.00 L 50.00 55.00 L 49.00 55.00 C 49.00 55.50 49.00 56.50 49.00 57.00 L 48.00 57.00 L 48.00 62.00 L 49.00 62.00 L 49.00 63.00 L 50.00 63.00 L 50.00 64.00 L 55.00 64.00 L 55.00 63.00 C 55.50 63.00 56.50 63.00 57.00 63.00 L 57.00 62.00 L 58.00 62.00 C 58.00 61.50 58.00 60.50 58.00 60.00 L 59.00 60.00 L 59.00 59.00 L 60.00 59.00 C 60.00 57.25 60.00 53.75 60.00 52.00 L 59.00 52.00 L 59.00 51.00 L 54.00 51.00 Z" />
<path fill="#ff6a00" opacity="1.00" d=" M 122.00 25.00 C 126.00 25.00 130.00 25.00 134.00 25.00 L 134.00 26.00 C 134.75 26.00 136.25 26.00 137.00 26.00 L 137.00 27.00 C 137.50 27.00 138.50 27.00 139.00 27.00 L 139.00 28.00 L 140.00 28.00 L 140.00 29.00 L 141.00 29.00 C 141.00 29.50 141.00 30.50 141.00 31.00 L 142.00 31.00 C 142.00 32.33 142.00 33.67 142.00 35.00 L 141.00 35.00 C 141.00 35.75 141.00 37.25 141.00 38.00 L 140.00 38.00 C 140.00 38.50 140.00 39.50 140.00 40.00 L 139.23 40.17 C 137.19 42.39 134.75 44.10 131.91 45.28 C 132.16 45.51 132.64 45.96 132.88 46.19 L 133.00 47.00 C 133.50 47.00 134.50 47.00 135.00 47.00 L 135.00 48.00 L 136.00 48.00 C 136.00 48.50 136.00 49.50 136.00 50.00 L 137.00 50.00 C 137.00 51.50 137.00 54.50 137.00 56.00 L 136.00 56.00 C 136.00 56.75 136.00 58.25 136.00 59.00 L 135.20 59.12 C 133.21 64.31 129.22 67.94 124.30 70.31 C 118.89 73.64 112.12 73.00 106.00 73.02 L 106.00 72.00 C 105.25 72.00 103.75 72.00 103.00 72.00 L 103.00 71.00 C 102.50 71.00 101.50 71.00 101.00 71.00 L 101.00 70.00 L 100.00 70.00 L 100.00 69.00 L 99.00 69.00 C 99.00 68.50 99.00 67.50 99.00 67.00 L 98.00 67.00 C 98.00 66.25 98.00 64.75 98.00 64.00 L 97.00 64.00 L 97.00 59.00 C 99.98 58.99 103.01 59.00 106.00 59.00 L 106.00 57.96 L 110.96 58.04 L 111.04 63.00 L 111.79 63.07 C 113.09 63.32 115.70 63.80 117.00 64.05 L 117.11 63.20 C 122.29 61.71 123.91 56.93 123.03 52.00 L 122.00 52.00 L 122.00 51.00 C 120.50 51.00 117.50 51.00 116.00 51.00 L 116.00 52.00 L 115.00 52.00 C 115.00 51.50 115.00 50.50 115.00 50.00 L 116.00 50.00 C 116.00 49.50 116.00 48.50 116.00 48.00 L 117.00 48.00 C 117.00 47.25 117.00 45.75 117.00 45.00 L 118.00 45.00 C 118.00 44.50 118.00 43.50 118.00 43.00 L 119.00 43.00 L 119.00 42.00 C 120.33 42.00 121.67 42.00 123.00 42.00 L 123.00 41.00 C 123.50 41.00 124.50 41.00 125.00 41.00 L 125.00 40.00 C 125.50 40.00 126.50 40.00 127.00 40.00 C 127.00 39.50 127.00 38.50 127.00 38.00 L 128.00 38.00 C 128.00 37.25 128.00 35.75 128.00 35.00 L 127.20 34.92 C 121.84 29.44 120.19 40.34 115.01 39.09 L 115.00 38.00 C 113.25 38.00 109.75 38.00 108.00 38.00 L 108.00 37.00 C 107.50 37.00 106.50 37.00 106.00 37.00 L 106.00 36.00 L 107.00 36.00 L 107.00 35.00 L 108.00 35.00 C 108.00 34.50 108.00 33.50 108.00 33.00 L 108.77 32.83 C 110.75 30.67 113.13 28.99 115.88 27.80 L 116.00 27.00 C 116.50 27.00 117.50 27.00 118.00 27.00 L 118.00 26.00 C 119.33 26.00 120.67 26.00 122.00 26.00 L 122.00 25.00 Z" />
<path fill="#ff6a00" opacity="1.00" d=" M 78.09 59.01 C 82.42 59.00 86.75 58.99 91.08 59.01 C 89.41 67.72 86.00 77.00 78.77 82.75 C 76.49 83.79 74.23 84.87 72.00 85.99 C 71.99 84.66 72.00 83.33 72.00 82.00 L 70.87 81.97 C 70.55 78.36 75.81 78.81 77.23 76.16 L 78.00 76.00 L 78.00 75.00 L 79.00 75.00 C 79.00 74.50 79.00 73.50 79.00 73.00 L 80.00 73.00 L 80.00 72.01 C 78.47 71.99 75.41 71.97 73.87 71.95 C 75.38 67.68 77.87 63.60 78.09 59.01 Z" />
</g>
</svg>
