<?xml version="1.0" encoding="UTF-8" ?>
<!DOCTYPE svg PUBLIC "-//W3C//DTD SVG 1.1//EN" "http://www.w3.org/Graphics/SVG/1.1/DTD/svg11.dtd">
<svg width="210pt" height="210pt" viewBox="0 0 210 210" version="1.1" xmlns="http://www.w3.org/2000/svg">
<g id="#3497D8FF">
<path fill="#3497D8" opacity="1.00" d=" M 101.00 28.01 C 103.67 27.99 106.33 27.99 109.00 28.01 C 109.05 62.19 108.91 96.38 109.07 130.56 C 136.21 146.51 163.10 162.90 190.16 179.00 C 188.95 180.98 187.76 182.98 186.59 184.99 C 159.36 168.76 132.22 152.39 105.00 136.14 C 77.78 152.39 50.63 168.75 23.41 184.99 C 22.24 182.98 21.05 180.98 19.84 179.00 C 46.90 162.90 73.80 146.51 100.94 130.55 C 101.08 96.37 100.96 62.19 101.00 28.01 Z" />
</g>
<g id="#ff6a00ff">
<path fill="#ff6a00" opacity="1.00" d=" M 151.13 28.10 C 164.49 28.08 177.85 27.93 191.21 28.04 C 190.05 31.24 189.53 34.82 187.60 37.64 C 176.55 46.61 165.08 55.06 153.91 63.89 C 162.62 64.15 171.34 63.91 180.06 64.02 C 178.89 67.28 177.73 70.54 176.75 73.86 C 162.15 74.18 147.54 73.93 132.94 73.99 C 134.16 70.82 134.95 67.48 136.44 64.42 C 147.50 55.43 159.03 47.02 170.15 38.10 C 162.71 37.85 155.28 38.11 147.84 37.96 C 148.79 34.62 149.93 31.35 151.13 28.10 Z" />
</g>
</svg>
