<?xml version="1.0" encoding="UTF-8" ?>
<!DOCTYPE svg PUBLIC "-//W3C//DTD SVG 1.1//EN" "http://www.w3.org/Graphics/SVG/1.1/DTD/svg11.dtd">
<svg width="210pt" height="210pt" viewBox="0 0 210 210" version="1.1" xmlns="http://www.w3.org/2000/svg">
<g id="#515151ff">
<path fill="#515151" opacity="1.00" d=" M 21.01 21.01 C 77.00 21.00 133.00 20.99 188.99 21.01 C 189.00 77.00 189.01 133.00 188.99 188.99 C 132.99 189.00 77.00 189.01 21.01 188.99 C 21.00 132.99 20.99 77.00 21.01 21.01 M 28.01 28.01 C 27.99 79.34 27.99 130.66 28.01 181.99 C 79.34 182.01 130.66 182.01 181.99 181.99 C 182.01 130.66 182.01 79.34 181.99 28.01 C 130.66 27.99 79.34 27.99 28.01 28.01 Z" />
</g>
<g id="#BCCBDDff">
<path fill="#BCCBDD" opacity="1.00" d=" M 41.01 42.01 C 83.34 41.99 125.67 41.99 167.99 42.01 C 168.01 84.00 168.01 125.99 167.99 167.99 C 125.66 168.01 83.33 168.01 41.01 167.99 C 40.99 126.00 40.99 84.00 41.01 42.01 Z" />
</g>
</svg>
